<svg width="60" height="60" viewBox="0 0 60 60" fill="none" xmlns="http://www.w3.org/2000/svg">
<path fill-rule="evenodd" clip-rule="evenodd" d="M35.5045 29.9017V30.0986C35.5045 32.9211 37.7982 35.2305 40.6018 35.2305H43.4015C44.5606 35.2305 45.5 36.1764 45.5 37.343V46H36.7593C35.6003 46 34.6608 45.0541 34.6608 43.8871V40.3302C34.6608 37.5077 32.3671 35.1983 29.5638 35.1983H29.3679C26.5646 35.1983 24.2709 37.5077 24.2709 40.3302V46H14.5V14H24.2709V19.7388C24.2709 22.5616 26.5646 24.8707 29.3683 24.8707H29.5638C32.3671 24.8707 34.6608 22.5616 34.6608 19.7388V16.1129C34.6608 14.9459 35.6003 14 36.7593 14H45.5V22.657C45.5 23.824 44.5606 24.7699 43.4015 24.7699H40.6018C37.7982 24.7699 35.5045 27.0793 35.5045 29.9017Z" fill="#3183FF"/>
</svg>
